# xmcd
#
# Track frame offsets: 
#        183
#        64083
#        98320
#        123595
#        159258
#        200433
#        257470
#        282145
#
# Disc length: 4286 seconds
#
# Revision: 7
# Processed by: cddbd v1.5.2PL0 Copyright (c) Steve Scherf et al.
# Submitted via: ExactAudioCopy v0.99pb5
#
DISCID=6010bc08
DTITLE=Heinrich Schiff, Till Fellner - Beethoven - Cello Sonatas I
DYEAR=1998
DGENRE=Classical
TTITLE0=01. Cello Sonata in F major Op. 5 No. 1 - 1. Adagio sostenuto-
TTITLE0=allegro
TTITLE1=02. Cello Sonata in F major Op. 5 No. 1 - 2. Rondo, allegro vi
TTITLE1=vace
TTITLE2=03. Cello Sonata in G minor Op. 5 No. 2 - 1. Adagio sostenuto 
TTITLE2=ed espressivo
TTITLE3=04. Cello Sonata in G minor Op. 5 No. 2 - 2. Allegro molto piu
TTITLE3=tosto presto
TTITLE4=05. Cello Sonata in G minor Op. 5 No. 2 - 3. Rondo, allegro
TTITLE5=06. Cello Sonata in A major Op. 69 - 1. Allegro ma non tanto
TTITLE6=07. Cello Sonata in A major Op. 69 - 2. Scherzo, allegro molto
TTITLE7=08. Cello Sonata in A major Op. 69 - 3. Adagio cantabile-alleg
TTITLE7=ro vivace
EXTD=Heinrich Schiff - cello\nTill Fellner - piano\n\nPhilips 462 601-
EXTD=2 YEAR: 1998
EXTT0=
EXTT1=
EXTT2=
EXTT3=
EXTT4=
EXTT5=
EXTT6=
EXTT7=
PLAYORDER=
